# xmcd
#
# Track frame offsets:
#	150
#	46581
#	54077
#	72940
#	99055
#	131260
#	146118
#	171125
#	187935
#
# Disc length: 2767 seconds
#
# Revision: 1
# Processed by: cddbd v1.5.2PL0 Copyright (c) Steve Scherf et al.
# Submitted via: audiograbber 1.83.01
#
DISCID=690acd09
DTITLE=Eagles - Long Road out of Eden, Disc 2
DYEAR=2007
DGENRE=Country Rock
TTITLE0=Long Road out of Eden
TTITLE1=I Dreamed There Was No War
TTITLE2=Somebody
TTITLE3=Frail Grasp on the Big Picture
TTITLE4=Last Good Time in Town
TTITLE5=I Love to Watch a Woman Dance
TTITLE6=Business as Usual
TTITLE7=Center of the Universe
TTITLE8=It's Your World Now
EXTD=
EXTT0=
EXTT1=
EXTT2=
EXTT3=
EXTT4=
EXTT5=
EXTT6=
EXTT7=
EXTT8=
PLAYORDER=
